<svg width="47" height="23" viewBox="0 0 47 23" fill="none" xmlns="http://www.w3.org/2000/svg">
<path d="M12.3367 0.547405C13.4946 0.219168 14.8455 0.406732 15.8104 1.04758C17.1035 1.86035 17.5666 3.40776 16.8526 4.59567C16.3315 5.62727 14.9806 6.31501 13.6297 6.33064C11.8928 6.33064 10.1559 6.92459 8.97871 7.97182C7.91728 8.87838 7.35762 10.1444 7.35762 11.3949C7.31902 12.5046 6.46988 13.5988 5.19616 14.0364C4.05754 14.4428 2.64873 14.3803 1.6259 13.7863C0.390785 13.1298 -0.26537 11.8169 0.101305 10.6446C0.506578 9.33166 2.06977 8.31569 3.76806 8.37821C6.99094 8.40947 9.92434 6.06492 9.84715 3.45465C9.76995 2.17296 10.87 0.953795 12.3367 0.547405Z" fill="white"/>
<path d="M31.867 0.578642C33.2758 0.140992 34.9934 0.48486 35.939 1.43831C36.5952 2.01663 36.8846 2.81378 36.8654 3.57967C36.8654 6.20557 39.9145 8.47197 43.1374 8.36256C45.0287 8.36256 46.6498 9.73803 46.6884 11.2542C46.727 12.6453 45.4147 14.0051 43.7164 14.2396C42.1918 14.5053 40.4935 13.8644 39.7795 12.7234C39.104 11.8481 39.4707 10.7853 39.0461 9.84744C38.4478 8.1281 36.5759 6.79952 34.4337 6.42439C32.1758 6.01801 29.6862 6.78389 28.2967 8.26878C27.5055 9.11282 26.9844 10.1601 27.0037 11.2385C27.0423 12.3952 26.1932 13.5362 24.8809 14.0207C23.8387 14.4584 22.6036 14.1614 21.5422 14.5053C19.1105 15.0992 17.2579 16.9905 17.1807 19.0537C17.1807 19.6477 17.0649 20.2416 16.6789 20.7574C15.9456 21.8359 14.3245 22.4455 12.8192 22.1954C11.7191 22.0391 10.7735 21.4295 10.2331 20.6324C9.59628 19.6946 9.69277 18.4754 10.4647 17.6001C11.1016 16.8186 12.2402 16.3184 13.3981 16.3028C15.135 16.3184 16.8719 15.7245 18.0491 14.6616C19.0912 13.7238 19.7281 12.4733 19.6895 11.2073C19.6895 10.0037 20.7123 8.87836 22.1211 8.4876C23.0668 8.20625 24.1089 8.42508 25.0545 8.1281C27.6213 7.54978 29.5125 5.53346 29.5318 3.37648C29.4739 2.2042 30.4389 1.00066 31.867 0.578642Z" fill="#E84931"/>
<path d="M31.8284 16.5215C33.0249 16.1308 34.4723 16.3184 35.4758 16.9748C36.6724 17.7407 37.1741 19.1631 36.5952 20.3197C36.0162 21.5701 34.3565 22.4298 32.6968 22.2266C31.3652 22.1016 30.188 21.3357 29.7441 20.3197C29.0108 18.8817 29.995 17.053 31.8284 16.5215Z" fill="white"/>
</svg>
