<svg width="47" height="27" viewBox="0 0 47 27" fill="none" xmlns="http://www.w3.org/2000/svg">
<path d="M12.3367 0.195987C13.4946 -0.209285 14.8455 0.0222984 15.8104 0.813545C17.1035 1.81708 17.5666 3.72765 16.8526 5.19435C16.3315 6.46807 14.9806 7.31721 13.6297 7.33651C11.8928 7.33651 10.1559 8.06986 8.97871 9.36287C7.91728 10.4822 7.35762 12.0454 7.35762 13.5893C7.31902 14.9595 6.46988 16.3104 5.19616 16.8508C4.05754 17.3525 2.64873 17.2753 1.6259 16.542C0.390785 15.7314 -0.26537 14.1104 0.101305 12.6629C0.506578 11.0419 2.06977 9.78744 3.76806 9.86464C6.99094 9.90323 9.92434 7.00843 9.84715 3.78555C9.76995 2.20305 10.87 0.697753 12.3367 0.195987Z" fill="#284D57"/>
<path d="M31.867 0.234528C33.2758 -0.305836 34.9934 0.118736 35.939 1.29596C36.5952 2.01001 36.8846 2.99424 36.8654 3.93988C36.8654 7.18206 39.9145 9.98037 43.1374 9.84528C45.0287 9.84528 46.6498 11.5436 46.6884 13.4155C46.727 15.1331 45.4147 16.8121 43.7164 17.1016C42.1918 17.4297 40.4935 16.6384 39.7795 15.2296C39.104 14.1489 39.4707 12.8366 39.0461 11.6787C38.4478 9.5558 36.5759 7.91541 34.4337 7.45224C32.1758 6.95048 29.6862 7.89611 28.2967 9.72949C27.5055 10.7716 26.9844 12.0646 27.0037 13.3962C27.0423 14.8243 26.1932 16.2332 24.8809 16.8314C23.8387 17.3718 22.6036 17.0051 21.5422 17.4297C19.1105 18.163 17.2579 20.4982 17.1807 23.0456C17.1807 23.7789 17.0649 24.5123 16.6789 25.1492C15.9456 26.4808 14.3245 27.2334 12.8192 26.9246C11.7191 26.7316 10.7735 25.979 10.2331 24.9948C9.59628 23.8368 9.69277 22.3315 10.4647 21.2508C11.1016 20.2859 12.2402 19.6683 13.3981 19.649C15.135 19.6683 16.8719 18.935 18.0491 17.6227C19.0912 16.4647 19.7281 14.9208 19.6895 13.3576C19.6895 11.8716 20.7123 10.4821 22.1211 9.99967C23.0668 9.65229 24.1089 9.92248 25.0545 9.5558C27.6213 8.84175 29.5125 6.35222 29.5318 3.689C29.4739 2.24159 30.4389 0.755593 31.867 0.234528Z" fill="#E84931"/>
<path d="M31.8284 19.9194C33.0249 19.4369 34.4723 19.6685 35.4759 20.4791C36.6724 21.4247 37.1741 23.1809 36.5952 24.609C36.0162 26.1529 34.3565 27.2143 32.6968 26.9634C31.3652 26.809 30.188 25.8634 29.7441 24.609C29.0108 22.8335 29.995 20.5756 31.8284 19.9194Z" fill="#284D57"/>
</svg>
